<svg width="25" height="22" viewBox="0 0 25 22" fill="none" xmlns="http://www.w3.org/2000/svg">
<g clip-path="url(#clip0_17_7311)">
<path d="M24.0015 21.9954L3.27466 21.9954C3.10638 21.9954 2.93974 21.9622 2.78427 21.8978C2.6288 21.8334 2.48753 21.739 2.36854 21.62C2.24955 21.501 2.15517 21.3598 2.09078 21.2043C2.02639 21.0488 1.99325 20.8822 1.99327 20.7139L1.99327 3.99269L24.0015 3.99269L24.0015 21.9954Z" fill="#3A3A3A"/>
<path d="M3.98999 0H20.7013C21.0411 0 21.3671 0.135004 21.6074 0.375313C21.8477 0.615623 21.9827 0.941552 21.9827 1.2814V17.9889H3.98999V0Z" fill="#777676"/>
<path d="M0 20.252L3.99 17.989V0L0 2.432V20.252Z" fill="#D8D8D8"/>
<path d="M16.9521 7.91269V9.71419C16.9521 12.2269 15.4164 13.7904 12.5121 13.7904H9.31494V4.01709H12.8469C15.5839 4.01709 16.9521 5.58109 16.9521 7.91269ZM14.5087 7.82869C14.5087 6.46049 13.9501 5.77639 12.7773 5.77639H11.7582V12.0313H12.5682C13.867 12.0313 14.5091 11.3331 14.5091 9.78379L14.5087 7.82869Z" fill="white"/>
</g>
<defs>
<clipPath id="clip0_17_7311">
<rect width="24.0016" height="21.9954" fill="white"/>
</clipPath>
</defs>
</svg>
